<svg xmlns="http://www.w3.org/2000/svg" viewBox="0 0 512 512" fill="none">
  <rect width="512" height="512" rx="96" fill="#1e40af"/>
  <path d="M256 80c-97.2 0-176 78.8-176 176 0 97.2 78.8 176 176 176s176-78.8 176-176c0-97.2-78.8-176-176-176zm0 320c-79.5 0-144-64.5-144-144s64.5-144 144-144 144 64.5 144 144-64.5 144-144 144z" fill="white"/>
  <path d="M256 144c-61.9 0-112 50.1-112 112s50.1 112 112 112 112-50.1 112-112-50.1-112-112-112zm0 192c-44.1 0-80-35.9-80-80s35.9-80 80-80 80 35.9 80 80-35.9 80-80 80z" fill="white"/>
  <circle cx="256" cy="256" r="48" fill="white"/>
  <path d="M256 128v-32M256 416v-32M128 256h-32M416 256h-32" stroke="white" stroke-width="16" stroke-linecap="round"/>
</svg>
